<?xml version="1.0" encoding="utf-8"?>
<!-- Generator: Adobe Illustrator 24.1.3, SVG Export Plug-In . SVG Version: 6.00 Build 0)  -->
<svg version="1.1" id="Слой_1" xmlns="http://www.w3.org/2000/svg" xmlns:xlink="http://www.w3.org/1999/xlink" x="0px" y="0px"
	 viewBox="0 0 300 300" style="enable-background:new 0 0 300 300;" xml:space="preserve">
<style type="text/css">
	.st0{fill:#2D2C2B;}
	.st1{fill:#FEFEFE;}
	.st2{fill:#444343;}
	.st3{fill:#020202;}
	.st4{fill:#E21F25;}
	.st5{fill:#FDFDFD;}
</style>
<g>
	<g>
		<path class="st0" d="M0.03,145.5c0-1.6,0-3.2,0-4.8c0.38-0.14,0.27-0.48,0.3-0.76c0.48-5.62,1.1-11.23,2.1-16.79
			c2.15-11.93,5.63-23.46,10.67-34.48c15.37-33.57,39.73-58.4,72.99-74.4c15.14-7.29,31.16-11.64,47.88-13.43
			c2.05-0.22,4.15-0.09,6.13-0.81c3.8,0,7.6,0,11.4,0c1.5,0.45,3,0.54,4.5,0c1.2,0,2.4,0,3.6,0c0.09,0.32,0.36,0.27,0.6,0.29
			c2.88,0.3,5.76,0.56,8.64,0.9c10.9,1.26,21.51,3.79,31.79,7.57c31.68,11.62,56.85,31.55,75.27,59.82
			c13.91,21.35,21.67,44.86,23.59,70.28c0.13,1.7-0.15,3.45,0.48,5.11c0,0.5,0,1,0,1.5c-0.44,0.26-0.32,0.69-0.32,1.07
			c-0.01,2.29-0.01,4.57,0,6.86c0,0.38-0.12,0.81,0.32,1.07c0,0.6,0,1.2,0,1.8c-0.45,0.19-0.28,0.59-0.29,0.91
			c-0.17,4.35-0.63,8.66-1.19,12.97c-1.3,9.98-3.58,19.73-6.97,29.18c-11.82,33.02-32.54,59-62.19,77.72
			c-21.02,13.27-44.04,20.61-68.84,22.4c-1.6,0.12-3.25-0.18-4.79,0.49c-0.6,0-1.2,0-1.8,0c-0.2-0.4-0.57-0.33-0.91-0.34
			c-2.29-0.01-4.59-0.01-6.88-0.01c-0.34,0-0.72-0.07-0.9,0.34c-0.6,0-1.2,0-1.8,0c-0.15-0.48-0.57-0.31-0.88-0.32
			c-6.79-0.32-13.53-1.14-20.22-2.38c-12.72-2.35-24.95-6.25-36.59-11.88c-32.69-15.82-56.75-40.22-72.11-73.1
			c-6.94-14.85-11.09-30.52-12.78-46.84c-0.24-2.35-0.18-4.74-0.8-7.05c0-1.1,0-2.2,0-3.3c0.46-0.32,0.3-0.8,0.31-1.23
			c0.01-2.38,0.01-4.76,0-7.14C0.33,146.31,0.47,145.83,0.03,145.5z M9.38,149.92c0.03,77.67,62.97,140.57,140.65,140.55
			c77.6-0.02,140.48-62.93,140.5-140.56c0.02-77.61-63-140.6-140.65-140.57C72.31,9.38,9.35,72.37,9.38,149.92z"/>
		<path class="st1" d="M155.7,299.97c1.54-0.67,3.2-0.37,4.79-0.49c24.8-1.79,47.83-9.14,68.84-22.4
			c29.65-18.72,50.37-44.7,62.19-77.72c3.39-9.46,5.67-19.21,6.97-29.18c0.56-4.31,1.02-8.63,1.19-12.97
			c0.01-0.31-0.16-0.72,0.29-0.91c0,47.44,0,94.88,0.03,142.32c0,1.12-0.25,1.38-1.38,1.38
			C250.98,299.97,203.34,299.97,155.7,299.97z"/>
		<path class="st1" d="M0.03,158.4c0.61,2.31,0.56,4.7,0.8,7.05c1.69,16.32,5.83,31.99,12.78,46.84
			c15.37,32.88,39.43,57.28,72.11,73.1c11.64,5.63,23.87,9.53,36.59,11.88c6.69,1.24,13.42,2.05,20.22,2.38
			c0.31,0.01,0.73-0.16,0.88,0.32c-47.37,0-94.73,0-142.1,0.03c-1.08,0-1.3-0.22-1.3-1.3C0.03,251.93,0.03,205.16,0.03,158.4z"/>
		<path class="st1" d="M299.97,144c-0.64-1.66-0.36-3.41-0.48-5.11c-1.93-25.43-9.68-48.93-23.59-70.28
			c-18.42-28.27-43.58-48.2-75.27-59.82c-10.28-3.77-20.9-6.3-31.79-7.57c-2.88-0.33-5.76-0.6-8.64-0.9
			c-0.24-0.02-0.51,0.03-0.6-0.29c46.34,0,92.68,0,139.02-0.03c1.12,0,1.38,0.25,1.38,1.38C299.97,48.92,299.97,96.46,299.97,144z"
			/>
		<path class="st1" d="M140.1,0.03c-1.98,0.72-4.08,0.59-6.13,0.81c-16.72,1.78-32.74,6.14-47.88,13.43
			c-33.26,16-57.62,40.83-72.99,74.4c-5.05,11.02-8.52,22.55-10.67,34.48c-1,5.56-1.62,11.16-2.1,16.79
			c-0.02,0.28,0.08,0.62-0.3,0.76c0-46.47,0-92.93-0.03-139.4C0,0.22,0.22,0,1.3,0C47.57,0.03,93.84,0.03,140.1,0.03z"/>
		<path class="st2" d="M0.03,145.5c0.44,0.33,0.3,0.81,0.3,1.23c0.01,2.38,0.01,4.76,0,7.14c0,0.43,0.15,0.91-0.31,1.23
			C0.03,151.9,0.03,148.7,0.03,145.5z"/>
		<path class="st2" d="M299.97,154.5c-0.44-0.25-0.32-0.69-0.32-1.07c-0.01-2.29-0.01-4.57,0-6.86c0-0.38-0.12-0.81,0.32-1.07
			C299.97,148.5,299.97,151.5,299.97,154.5z"/>
		<path class="st2" d="M145.2,299.97c0.19-0.41,0.57-0.34,0.9-0.34c2.29,0,4.59,0,6.88,0.01c0.34,0,0.72-0.07,0.91,0.34
			C151,299.97,148.1,299.97,145.2,299.97z"/>
		<path class="st2" d="M156,0.03c-1.5,0.54-3,0.45-4.5,0C153,0.03,154.5,0.03,156,0.03z"/>
		<path class="st1" d="M9.38,149.92C9.35,72.37,72.31,9.38,149.88,9.35c77.64-0.03,140.67,62.96,140.65,140.57
			c-0.02,77.62-62.91,140.54-140.5,140.56C72.34,290.49,9.4,227.59,9.38,149.92z M111.57,148.18c-0.43,2.94-0.87,5.87-1.3,8.81
			c-0.45-0.12-0.76-0.45-1.08-0.77c-7.48-7.5-14.95-15.01-22.45-22.49c-0.67-0.67-0.73-1.24-0.45-2.12
			c1.13-3.49,1.36-7.09,0.64-10.65c-2.86-14.14-16.82-21.81-30.17-16.92c-1.15,0.42-1.47,0.75-0.45,1.73
			c2.64,2.51,5.21,5.1,7.8,7.65c2.31,2.28,4.69,4.48,6.68,7.05c2.35,3.03,2.12,7.18-0.48,9.85c-2.66,2.73-6.66,3.07-9.82,0.88
			c-1.37-0.95-2.49-2.15-3.65-3.32c-3.74-3.75-7.47-7.51-11.19-11.28c-0.8-0.82-1.3-1.09-1.79,0.31c-1.3,3.78-1.89,7.58-1.26,11.6
			c2.24,14.24,16.88,21.92,28.73,17.96c1.11-0.37,1.79-0.1,2.59,0.7c9.21,9.28,18.47,18.52,27.7,27.79c1.86,1.87,3.89,3.58,5.5,5.68
			c-0.8,5.56-1.62,11.12-2.39,16.69c-1.06,7.74-2.01,15.5-3.13,23.23c-0.78,5.37,2.13,9.79,7.51,10.68
			c5.3,0.88,10.65,1.48,15.97,2.22c5.37,0.75,10.73,1.56,16.11,2.29c6.31,0.86,12.63,1.64,18.94,2.5
			c6.85,0.94,13.69,1.95,20.55,2.89c8.04,1.11,16.09,2.14,24.12,3.27c5.74,0.81,10.17-2.5,10.89-8.19c0.49-3.9,1.05-7.79,1.58-11.68
			c0.97-7.05,1.94-14.1,2.91-21.14c0.84-6.16,1.67-12.33,2.51-18.49c0.96-7,1.92-14,2.89-21c0.86-6.26,1.71-12.52,2.57-18.78
			c0.93-6.8,1.88-13.6,2.8-20.41c0.86-6.31,1.67-12.63,2.53-18.94c0.94-6.85,1.92-13.7,2.86-20.55c1.09-7.89,2.1-15.78,3.26-23.66
			c0.82-5.58-2.26-10.11-7.77-10.93c-6.01-0.9-12.03-1.68-18.05-2.52c-6.66-0.93-13.31-1.88-19.97-2.79
			c-7.89-1.08-15.79-2.11-23.69-3.19c-5.33-0.72-10.65-1.49-15.97-2.23c-5.67-0.78-11.35-1.49-17.01-2.36
			c-6.46-1-11.22,2.48-11.81,8.85c-0.5,5.4-1.41,10.75-2.15,16.13c-0.97,7.05-1.95,14.09-2.91,21.14
			c-0.73,5.32-1.42,10.65-2.15,15.98c-0.88,6.46-1.77,12.91-2.67,19.37c-0.74,5.37-1.51,10.74-2.24,16.11
			c-0.46,3.34-0.87,6.69-1.3,10.04C111.59,146.16,110.5,147.03,111.57,148.18z M42.23,210.81c0.01,3.87,0.93,6.56,3.12,8.78
			c2.62,2.65,5.9,3.91,9.61,3.4c3.24-0.45,5.71-2.43,7.97-4.7c11.52-11.55,23.05-23.09,34.6-34.6c0.69-0.69,0.66-1.07,0.01-1.71
			c-4.72-4.68-9.43-9.36-14.07-14.1c-0.9-0.92-1.35-0.66-2.11,0.11c-4.47,4.55-8.99,9.05-13.5,13.57
			c-7.33,7.35-14.66,14.71-22,22.05C43.65,205.83,42.45,208.47,42.23,210.81z"/>
		<path class="st3" d="M111.94,145.19c0.43-3.35,0.85-6.69,1.3-10.04c0.73-5.37,1.5-10.74,2.24-16.11
			c0.89-6.46,1.79-12.91,2.67-19.37c0.73-5.33,1.42-10.65,2.15-15.98c0.96-7.05,1.94-14.1,2.91-21.14
			c0.74-5.37,1.65-10.73,2.15-16.13c0.59-6.37,5.35-9.85,11.81-8.85c5.66,0.87,11.34,1.57,17.01,2.36
			c5.32,0.74,10.65,1.5,15.97,2.23c7.89,1.07,15.79,2.11,23.69,3.19c6.66,0.91,13.31,1.87,19.97,2.79
			c6.02,0.84,12.04,1.62,18.05,2.52c5.51,0.83,8.59,5.36,7.77,10.93c-1.16,7.88-2.17,15.77-3.26,23.66
			c-0.95,6.85-1.92,13.69-2.86,20.55c-0.86,6.31-1.68,12.63-2.53,18.94c-0.92,6.8-1.87,13.6-2.8,20.41
			c-0.86,6.26-1.71,12.52-2.57,18.78c-0.96,7-1.93,14-2.89,21c-0.84,6.16-1.67,12.33-2.51,18.49c-0.96,7.05-1.94,14.1-2.91,21.14
			c-0.53,3.89-1.09,7.79-1.58,11.68c-0.72,5.69-5.15,9-10.89,8.19c-8.03-1.13-16.08-2.16-24.12-3.27
			c-6.85-0.94-13.69-1.96-20.55-2.89c-6.31-0.86-12.63-1.64-18.94-2.5c-5.37-0.73-10.74-1.54-16.11-2.29
			c-5.32-0.74-10.67-1.34-15.97-2.22c-5.38-0.89-8.28-5.31-7.51-10.68c1.12-7.73,2.07-15.49,3.13-23.23
			c0.76-5.57,1.59-11.13,2.39-16.69c3.3,3.31,6.6,6.63,9.9,9.94c-0.49,0.65-0.29,1.43-0.42,2.15c-0.38,2.09-0.36,2.09,1.69,2.52
			c-0.04,0.3-0.05,0.6-0.11,0.89c-1.81,8.95,2.1,18.44,9.91,23.31c6.9,4.31,14.17,4.94,21.62,1.32c7.01,0.95,14.02,1.88,21.03,2.86
			c2.48,0.35,4.36-0.78,4.72-2.95c0.35-2.09-1.04-3.85-3.46-4.19c-7.69-1.1-15.39-2.16-23.09-3.21c-1.98-0.27-3.18,0.41-4.15,2.18
			c-3.85-3.47-7.67-6.97-10.81-11.1c-1.62-2.12-1.68-4.62-0.46-7.06c2.99,0.41,5.98,0.84,8.97,1.23c2.45,0.32,4.9,0.58,7.36,0.87
			c3.56,3.52,7.12,7.05,10.79,10.68c1.47-2.89,1.86-5.84,2.3-8.78c3.65,0.5,7.31,1,10.96,1.5c7.06,0.97,14.12,1.95,21.18,2.92
			c3.75,0.52,7.5,1.04,11.26,1.53c2.13,0.28,2.14,0.25,2.42-1.79c0.62-4.55,1.23-9.09,1.85-13.64c1.32-9.79,2.64-19.57,3.97-29.36
			c1.46-10.72,2.95-21.44,4.42-32.16c1.38-10.03,2.75-20.06,4.12-30.1c0.82-5.98,1.63-11.96,2.45-17.94
			c0.14-1.04,0.26-1.76-1.3-1.96c-8.86-1.1-17.71-2.36-26.55-3.58c-9.39-1.29-18.78-2.58-28.17-3.88
			c-7.02-0.97-14.04-1.95-21.05-2.91c-4.45-0.61-8.9-1.23-13.35-1.81c-0.74-0.1-1.52-0.41-1.69,0.93c-1.14,8.8-2.37,17.6-3.57,26.39
			c-1.25,9.14-2.57,18.27-3.74,27.43c-0.4,3.13-1.18,6.22-1.26,9.39c-0.28,0.33-0.56,0.67-0.86,1c-3.53,3.93-7.41,7.53-11.09,11.31
			C112.66,144.88,112.4,145.21,111.94,145.19z M172.62,53.1c-1.18-0.01-2.06,0.38-2.23,1.69c-0.16,1.21,0.61,2.05,2.04,2.25
			c6.27,0.87,12.53,1.74,18.8,2.6c1.48,0.2,2.54-0.47,2.7-1.68c0.16-1.23-0.47-1.94-2.07-2.18c-3.5-0.53-7-1-10.5-1.49
			C178.44,53.89,175.53,53.5,172.62,53.1z"/>
		<path class="st4" d="M162.93,201.32c-0.44,2.94-0.83,5.89-2.3,8.78c-3.67-3.63-7.23-7.15-10.79-10.68
			c-1.82-2.33-3.91-4.42-6.52-5.8c-3.64-1.93-8.36-0.04-9.81,3.7c-1.22,2.44-1.16,4.94,0.46,7.06c3.14,4.13,6.97,7.63,10.81,11.1
			c1.65,1.77,3.29,3.54,4.94,5.31c-7.45,3.63-14.72,2.99-21.62-1.32c-7.81-4.87-11.73-14.36-9.91-23.31
			c0.06-0.29,0.07-0.59,0.11-0.89c1.18-2.62,1.05-3.08-1.27-4.67c-3.3-3.31-6.6-6.63-9.9-9.94c-1.62-2.1-3.64-3.81-5.5-5.68
			c-9.23-9.27-18.49-18.51-27.7-27.79c-0.8-0.81-1.48-1.08-2.59-0.7c-11.85,3.96-26.49-3.73-28.73-17.96
			c-0.63-4.02-0.04-7.82,1.26-11.6c0.48-1.41,0.98-1.13,1.79-0.31c3.72,3.77,7.46,7.52,11.19,11.28c1.16,1.17,2.28,2.37,3.65,3.32
			c3.16,2.19,7.16,1.85,9.82-0.88c2.6-2.67,2.83-6.81,0.48-9.85c-1.99-2.57-4.38-4.78-6.68-7.05c-2.59-2.56-5.16-5.14-7.8-7.65
			c-1.03-0.98-0.71-1.3,0.45-1.73c13.35-4.89,27.31,2.78,30.17,16.92c0.72,3.57,0.49,7.17-0.64,10.65
			c-0.28,0.87-0.22,1.45,0.45,2.12c7.5,7.48,14.97,14.98,22.45,22.49c0.32,0.32,0.63,0.64,1.08,0.77c2.18,2.65,4.77,4.89,7.15,7.33
			c0.85,0.88,1.59,1.91,2.72,2.48c0.08,0.48,0.45,0.76,0.77,1.08c3.35,3.36,6.77,6.67,10.03,10.11c1.11,1.17,2.15,1.31,3.53,0.82
			c1.51-0.54,3.11-0.84,4.68-0.87c7.23-0.13,13.36,2.45,18.17,7.88C161.22,190.22,162.88,195.49,162.93,201.32z"/>
		<path class="st2" d="M42.23,210.81c0.21-2.34,1.41-4.99,3.62-7.2c7.34-7.34,14.67-14.7,22-22.05c4.51-4.52,9.02-9.02,13.5-13.57
			c0.76-0.77,1.21-1.03,2.11-0.11c4.65,4.74,9.36,9.42,14.07,14.1c0.65,0.65,0.69,1.02-0.01,1.71
			c-11.55,11.51-23.08,23.05-34.6,34.6c-2.26,2.27-4.72,4.25-7.97,4.7c-3.72,0.51-6.99-0.75-9.61-3.4
			C43.17,217.38,42.24,214.69,42.23,210.81z"/>
		<path class="st2" d="M111.94,145.19c0.46,0.02,0.72-0.31,0.99-0.59c3.68-3.78,7.55-7.38,11.09-11.31c0.29-0.33,0.57-0.67,0.86-1
			c2.34-1.92,4.74-3.81,6.19-6.55c2.27-4.31,4.49-8.65,6.69-13.01c0.63-1.25,1.49-2.13,2.76-2.77c4.58-2.3,9.12-4.68,13.65-7.09
			c0.71-0.38,0.99-0.17,1.48,0.33c2.15,2.23,4.34,4.42,6.57,6.56c0.48,0.46,0.61,0.73,0.28,1.34c-2.58,4.88-5.13,9.79-7.67,14.69
			c-0.31,0.61-0.73,1.05-1.33,1.36c-4.34,2.21-8.67,4.46-13.04,6.63c-1.59,0.79-2.98,1.77-4.22,3.03
			c-4.26,4.36-8.54,8.7-12.84,13.02c-0.58,0.58-1.03,1.19-1.28,1.96c-0.31,0-0.55,0.16-0.82,0.29c-1.16,0.57-1.71,2.55-3.07,2.1
			c-1.14-0.37-1.91-1.8-2.91-2.69c-1.25-1.11-2.17-2.59-3.74-3.32C110.5,147.03,111.59,146.16,111.94,145.19z"/>
		<path class="st3" d="M111.57,148.18c1.58,0.73,2.5,2.22,3.74,3.32c1,0.89,1.77,2.32,2.91,2.69c1.36,0.45,1.91-1.53,3.07-2.1
			c0.27-0.13,0.51-0.29,0.82-0.29c0.09,1.11-0.46,2.12-0.57,3.18c-0.38,3.95-0.83,7.89-1.4,11.82c-1.14-0.57-1.87-1.6-2.72-2.48
			c-2.38-2.44-4.98-4.68-7.15-7.33C110.7,154.05,111.13,151.11,111.57,148.18z"/>
		<path class="st5" d="M120.14,166.79c0.56-3.93,1.01-7.87,1.4-11.82c0.1-1.06,0.66-2.06,0.57-3.18c0.25-0.77,0.71-1.38,1.28-1.96
			c4.3-4.32,8.58-8.66,12.84-13.02c1.24-1.27,2.63-2.24,4.22-3.03c4.37-2.17,8.7-4.41,13.04-6.63c0.6-0.3,1.02-0.75,1.33-1.36
			c2.54-4.91,5.08-9.81,7.67-14.69c0.33-0.62,0.19-0.89-0.28-1.34c-2.23-2.15-4.42-4.34-6.57-6.56c-0.48-0.5-0.77-0.71-1.48-0.33
			c-4.53,2.41-9.07,4.79-13.65,7.09c-1.27,0.64-2.13,1.52-2.76,2.77c-2.2,4.35-4.42,8.69-6.69,13.01c-1.45,2.75-3.84,4.63-6.19,6.55
			c0.08-3.17,0.86-6.26,1.26-9.39c1.17-9.15,2.49-18.29,3.74-27.43c1.21-8.8,2.43-17.59,3.57-26.39c0.17-1.34,0.96-1.03,1.69-0.93
			c4.45,0.59,8.9,1.2,13.35,1.81c7.02,0.97,14.04,1.94,21.05,2.91c9.39,1.3,18.78,2.59,28.17,3.88c8.85,1.21,17.69,2.47,26.55,3.58
			c1.56,0.19,1.45,0.92,1.3,1.96c-0.82,5.98-1.63,11.96-2.45,17.94c-1.37,10.03-2.75,20.06-4.12,30.1
			c-1.47,10.72-2.96,21.44-4.42,32.16c-1.34,9.78-2.65,19.57-3.97,29.36c-0.62,4.55-1.23,9.09-1.85,13.64
			c-0.28,2.04-0.29,2.07-2.42,1.79c-3.76-0.49-7.51-1.01-11.26-1.53c-7.06-0.97-14.12-1.95-21.18-2.92c-3.65-0.5-7.31-1-10.96-1.5
			c-0.05-5.83-1.72-11.1-5.62-15.5c-4.81-5.44-10.94-8.02-18.17-7.88c-1.58,0.03-3.17,0.33-4.68,0.87
			c-1.38,0.49-2.42,0.35-3.53-0.82c-3.26-3.45-6.68-6.75-10.03-10.11C120.6,167.55,120.23,167.27,120.14,166.79z"/>
		<path class="st5" d="M149.73,220.8c-1.65-1.77-3.29-3.54-4.94-5.31c0.97-1.77,2.17-2.44,4.15-2.18c7.7,1.05,15.4,2.11,23.09,3.21
			c2.41,0.34,3.8,2.1,3.46,4.19c-0.36,2.17-2.24,3.3-4.72,2.95C163.75,222.68,156.74,221.75,149.73,220.8z"/>
		<path class="st5" d="M172.62,53.1c2.92,0.4,5.83,0.79,8.74,1.19c3.5,0.49,7.01,0.97,10.5,1.49c1.6,0.24,2.22,0.96,2.07,2.18
			c-0.15,1.21-1.22,1.88-2.7,1.68c-6.27-0.86-12.53-1.73-18.8-2.6c-1.44-0.2-2.2-1.04-2.04-2.25
			C170.55,53.48,171.43,53.08,172.62,53.1z"/>
		<path class="st5" d="M133.52,197.33c1.45-3.74,6.18-5.63,9.81-3.7c2.6,1.38,4.69,3.47,6.52,5.8c-2.45-0.29-4.91-0.55-7.36-0.87
			C139.5,198.17,136.51,197.74,133.52,197.33z"/>
		<path class="st5" d="M117.03,190.6c2.33,1.59,2.45,2.05,1.27,4.67c-2.05-0.43-2.07-0.43-1.69-2.52
			C116.74,192.04,116.55,191.25,117.03,190.6z"/>
	</g>
</g>
</svg>
